<svg width="28" height="56" viewBox="0 0 28 56" fill="none" xmlns="http://www.w3.org/2000/svg">
<path d="M4.625 4.625V9.47375L12.125 16.9738V0.875H15.875V16.9738L23.375 9.47375V4.625H27.125V34.625C27.1197 37.778 25.9803 40.8239 23.9147 43.2062C21.8492 45.5884 18.9955 47.148 15.875 47.6V55.25H12.125V47.6C9.00453 47.148 6.15083 45.5884 4.08529 43.2062C2.01974 40.8239 0.880253 37.778 0.875 34.625V4.625H4.625ZM15.875 43.8106C17.9909 43.3758 19.8923 42.2248 21.2585 40.5515C22.6247 38.8783 23.3722 36.7852 23.375 34.625V29.7762L15.875 37.2762V43.8106ZM15.875 31.9738L23.375 24.4738V14.7762L15.875 22.2762V31.9738ZM12.125 22.2762L4.625 14.7762V24.4738L12.125 31.9738V22.2762ZM12.125 43.8106V37.2762L4.625 29.7762V34.625C4.62781 36.7852 5.37532 38.8783 6.74152 40.5515C8.10772 42.2248 10.0091 43.3758 12.125 43.8106Z" fill="white"/>
</svg>
