<svg width="58" height="58" viewBox="0 0 58 58" fill="none" xmlns="http://www.w3.org/2000/svg">
<path d="M27.1819 10.1914H30.9319V31.0638L17.3835 37.503L15.7737 34.1161L27.1819 28.694V10.1914Z" fill="white"/>
<path d="M29 0.875C44.533 0.875 57.125 13.467 57.125 29C57.125 44.533 44.533 57.125 29 57.125C13.467 57.125 0.875 44.533 0.875 29C0.875 13.467 13.467 0.875 29 0.875ZM29 53.375C42.4619 53.375 53.375 42.4619 53.375 29C53.375 15.5381 42.4619 4.625 29 4.625C15.5381 4.625 4.625 15.5381 4.625 29C4.625 42.4619 15.5381 53.375 29 53.375Z" fill="white"/>
</svg>
