<svg width="25" height="25" viewBox="0 0 25 25" fill="none" xmlns="http://www.w3.org/2000/svg">
<path fill-rule="evenodd" clip-rule="evenodd" d="M7.77612 1.1105C8.998 1.05425 9.38758 1.04175 12.5001 1.04175C15.6126 1.04175 16.0022 1.05529 17.223 1.1105C18.4438 1.16571 19.2772 1.3605 20.0063 1.64279C20.7699 1.93133 21.4626 2.38237 22.0355 2.96571C22.6188 3.53758 23.0688 4.22925 23.3563 4.99383C23.6397 5.723 23.8334 6.55633 23.8897 7.77508C23.9459 8.99904 23.9584 9.38862 23.9584 12.5001C23.9584 15.6126 23.9449 16.0022 23.8897 17.224C23.8345 18.4428 23.6397 19.2761 23.3563 20.0053C23.0688 20.77 22.6181 21.4628 22.0355 22.0355C21.4626 22.6188 20.7699 23.0688 20.0063 23.3563C19.2772 23.6397 18.4438 23.8334 17.2251 23.8897C16.0022 23.9459 15.6126 23.9584 12.5001 23.9584C9.38758 23.9584 8.998 23.9449 7.77612 23.8897C6.55737 23.8345 5.72404 23.6397 4.99487 23.3563C4.23021 23.0688 3.53739 22.6181 2.96466 22.0355C2.38173 21.4633 1.93062 20.7708 1.64279 20.0063C1.3605 19.2772 1.16675 18.4438 1.1105 17.2251C1.05425 16.0011 1.04175 15.6115 1.04175 12.5001C1.04175 9.38758 1.05529 8.998 1.1105 7.77716C1.16571 6.55633 1.3605 5.723 1.64279 4.99383C1.93104 4.22933 2.3825 3.53687 2.96571 2.96466C3.53762 2.38185 4.22974 1.93075 4.99383 1.64279C5.723 1.3605 6.55633 1.16675 7.77508 1.1105H7.77612ZM17.1303 3.173C15.922 3.11779 15.5595 3.10633 12.5001 3.10633C9.44071 3.10633 9.07821 3.11779 7.86987 3.173C6.75216 3.22404 6.14591 3.4105 5.74175 3.56779C5.20737 3.77612 4.82508 4.023 4.42404 4.42404C4.04388 4.79388 3.75131 5.24412 3.56779 5.74175C3.4105 6.14591 3.22404 6.75216 3.173 7.86987C3.11779 9.07821 3.10633 9.44071 3.10633 12.5001C3.10633 15.5595 3.11779 15.922 3.173 17.1303C3.22404 18.248 3.4105 18.8542 3.56779 19.2584C3.75112 19.7553 4.04383 20.2063 4.42404 20.5761C4.79383 20.9563 5.24487 21.249 5.74175 21.4324C6.14591 21.5897 6.75216 21.7761 7.86987 21.8272C9.07821 21.8824 9.43966 21.8938 12.5001 21.8938C15.5605 21.8938 15.922 21.8824 17.1303 21.8272C18.248 21.7761 18.8542 21.5897 19.2584 21.4324C19.7928 21.224 20.1751 20.9772 20.5761 20.5761C20.9563 20.2063 21.249 19.7553 21.4324 19.2584C21.5897 18.8542 21.7761 18.248 21.8272 17.1303C21.8824 15.922 21.8938 15.5595 21.8938 12.5001C21.8938 9.44071 21.8824 9.07821 21.8272 7.86987C21.7761 6.75216 21.5897 6.14591 21.4324 5.74175C21.224 5.20737 20.9772 4.82508 20.5761 4.42404C20.2063 4.04391 19.756 3.75134 19.2584 3.56779C18.8542 3.4105 18.248 3.22404 17.1303 3.173ZM11.0365 16.0324C11.8539 16.3726 12.764 16.4185 13.6115 16.1623C14.4589 15.906 15.1911 15.3635 15.683 14.6274C16.1749 13.8913 16.396 13.0072 16.3085 12.1262C16.221 11.2452 15.8303 10.4219 15.2032 9.79696C14.8035 9.39745 14.3201 9.09155 13.7879 8.90127C13.2558 8.711 12.688 8.64108 12.1256 8.69655C11.5632 8.75203 11.02 8.93151 10.5353 9.22209C10.0506 9.51267 9.63627 9.90711 9.32227 10.377C9.00827 10.8469 8.80236 11.3806 8.71937 11.9396C8.63637 12.4987 8.67836 13.0691 8.84231 13.61C9.00626 14.1509 9.28808 14.6486 9.6675 15.0675C10.0469 15.4864 10.5145 15.8159 11.0365 16.0324ZM8.3355 8.3355C8.8824 7.7886 9.53166 7.35477 10.2462 7.05879C10.9608 6.76281 11.7266 6.61047 12.5001 6.61047C13.2735 6.61047 14.0394 6.76281 14.7539 7.05879C15.4685 7.35477 16.1178 7.7886 16.6647 8.3355C17.2116 8.8824 17.6454 9.53166 17.9414 10.2462C18.2374 10.9608 18.3897 11.7266 18.3897 12.5001C18.3897 13.2735 18.2374 14.0394 17.9414 14.7539C17.6454 15.4685 17.2116 16.1178 16.6647 16.6647C15.5601 17.7692 14.0621 18.3897 12.5001 18.3897C10.9381 18.3897 9.44001 17.7692 8.3355 16.6647C7.23098 15.5601 6.61047 14.0621 6.61047 12.5001C6.61047 10.9381 7.23098 9.44001 8.3355 8.3355ZM19.6959 7.48758C19.8314 7.35974 19.9399 7.206 20.015 7.03547C20.09 6.86494 20.1301 6.68109 20.1328 6.4948C20.1355 6.30851 20.1008 6.12357 20.0308 5.95092C19.9607 5.77828 19.8568 5.62145 19.725 5.4897C19.5933 5.35796 19.4365 5.25399 19.2638 5.18395C19.0912 5.11391 18.9062 5.07922 18.7199 5.08194C18.5337 5.08465 18.3498 5.12472 18.1793 5.19976C18.0087 5.27481 17.855 5.38331 17.7272 5.51883C17.4785 5.7824 17.3424 6.1325 17.3477 6.4948C17.353 6.8571 17.4992 7.20308 17.7554 7.45929C18.0117 7.7155 18.3576 7.86178 18.7199 7.86706C19.0822 7.87234 19.4323 7.73622 19.6959 7.48758Z" fill="white"/>
</svg>
