<svg width="60" height="60" viewBox="0 0 60 60" fill="none" xmlns="http://www.w3.org/2000/svg">
<path d="M35.307 1.59866C34.6104 1.09182 33.7834 0.689779 32.8731 0.41548C31.9629 0.141181 30.9874 0 30.0021 0C29.0169 0 28.0414 0.141181 27.1311 0.41548C26.2209 0.689779 25.3939 1.09182 24.6973 1.59866L8.78055 13.1748C4.78049 16.0867 1.99398 19.7623 0.742687 23.7771C-0.508602 27.7919 -0.173646 31.9824 1.70889 35.8646C3.59142 39.7469 6.94477 43.1627 11.3818 45.7177C15.8189 48.2727 21.1587 49.8628 26.7849 50.3044V57.6611C26.7849 58.2814 27.1237 58.8763 27.7266 59.3149C28.3296 59.7536 29.1473 60 30 60C30.8527 60 31.6705 59.7536 32.2734 59.3149C32.8763 58.8763 33.2151 58.2814 33.2151 57.6611V50.3044C38.8418 49.8628 44.1821 48.2725 48.6194 45.717C53.0566 43.1616 56.41 39.7453 58.2921 35.8625C60.1743 31.9798 60.5085 27.7889 59.2563 23.7739C58.0041 19.7588 55.2164 16.0833 51.2152 13.1716L35.3027 1.59554L35.307 1.59866ZM33.2151 45.5953V28.0378C33.2151 27.4175 32.8763 26.8226 32.2734 26.384C31.6705 25.9453 30.8527 25.6989 30 25.6989C29.1473 25.6989 28.3296 25.9453 27.7266 26.384C27.1237 26.8226 26.7849 27.4175 26.7849 28.0378V45.5953C22.4381 45.1598 18.3447 43.8503 14.9654 41.8142C11.586 39.7781 9.05493 37.0962 7.65696 34.0705C6.25898 31.0447 6.0496 27.7951 7.0524 24.6875C8.05521 21.5799 10.2304 18.7376 13.3331 16.4804L29.2412 4.90745C29.3408 4.83485 29.4591 4.77724 29.5893 4.73794C29.7195 4.69864 29.859 4.6784 30 4.6784C30.141 4.6784 30.2805 4.69864 30.4107 4.73794C30.5409 4.77724 30.6592 4.83485 30.7588 4.90745L46.6669 16.4804C49.7696 18.7376 51.9448 21.5799 52.9476 24.6875C53.9504 27.7951 53.741 31.0447 52.343 34.0705C50.9451 37.0962 48.414 39.7781 45.0346 41.8142C41.6553 43.8503 37.5619 45.1598 33.2151 45.5953Z" fill="white"/>
</svg>
