<svg width="80" height="75" viewBox="0 0 80 75" fill="none" xmlns="http://www.w3.org/2000/svg">
<ellipse cx="43.5294" cy="37.0101" rx="36.4706" ry="36.2253" fill="white"/>
<path d="M57.3283 63.6655C38.6847 67.7446 20.226 56.1062 16.101 37.6704C13.1983 24.6986 18.165 11.8177 27.8578 3.901C11.9589 10.8849 2.68611 28.1795 6.58997 45.6275C11.0468 65.5451 30.9884 78.1184 51.1303 73.7113C64.3441 70.8197 74.362 61.3383 78.4314 49.5348C73.6473 56.4798 66.2812 61.7067 57.3283 63.6655Z" fill="#F3AE2C"/>
<path d="M55.2323 56.1159C55.2257 56.124 50.7266 59.5572 48.1022 60.8548C41.8011 63.9703 34.9812 64.9353 28.4953 64.0304C28.4812 64.0282 28.4671 64.0246 28.4537 64.0194C15.9421 58.9833 7.26376 46.6925 7.61704 32.5471C7.692 29.5564 8.16625 26.6677 8.98785 23.931C9.04648 23.7365 8.76816 23.6279 8.67539 23.8091C6.65963 27.762 5.47585 32.208 5.35785 36.9278C5.17898 44.0746 7.47158 50.7136 11.4645 56.0455C11.584 56.2055 11.371 56.4007 11.2188 56.2708C7.98813 53.5039 5.24281 50.0751 3.2122 46.0599C1.85921 43.384 0.907735 40.6135 0.33403 37.8151C0.293211 37.6162 -0.00440362 37.6492 4.94617e-05 37.8525C0.0957907 42.2788 1.16008 46.7542 3.29533 50.9763C8.70137 61.668 19.5357 67.9011 30.8443 68.0435C30.8532 68.0435 30.8621 68.0442 30.871 68.0457L30.8859 68.0486C31.0833 68.0846 31.0632 68.37 30.8629 68.3796C26.8647 68.5777 22.7634 68.0655 18.7334 66.754C15.8597 65.819 13.2005 64.5346 10.7884 62.9663C10.6169 62.8547 10.4314 63.0866 10.5798 63.2268C13.8239 66.2777 17.7864 68.6827 22.3211 70.1586C35.7976 74.5444 50.1328 69.3564 57.7906 58.3573C58.938 56.7089 56.7538 54.7978 55.2323 56.1159Z" fill="#3B6E71"/>
<path d="M48.195 24.8939C48.195 24.8939 53.66 22.1109 55.7028 24.5259C57.7457 26.9408 57.5021 27.0036 57.5021 27.0036C57.5021 27.0036 59.0988 29.0327 59.8127 29.21C60.5267 29.3874 61.007 29.8247 63.4251 29.8405C65.8424 29.8565 66.4732 30.1905 66.4732 30.1905C66.4732 30.1905 67.2906 30.3961 67.7243 31.2216C68.1579 32.0463 69.3558 36.0327 69.0426 38.4756C68.7286 40.9188 67.2824 44.4625 64.5461 46.7535C61.8098 49.0445 56.6384 50.889 56.6384 50.889C56.6384 50.889 51.1484 52.6962 46.8911 50.7548C42.6338 48.8133 40.6263 45.5752 39.8428 43.7085C39.0593 41.8418 40.3048 40.392 40.3048 40.392C40.3048 40.392 43.4577 37.0189 43.6999 35.9543C43.943 34.8895 44.1387 34.0544 43.3535 31.6504C42.5683 29.2463 44.2847 27.1683 44.2847 27.1683C44.2847 27.1683 45.5886 26.0287 46.8928 25.4619C48.195 24.8939 48.195 24.8939 48.195 24.8939Z" fill="#51979B"/>
<path d="M36.9434 40.1181C36.9434 40.1181 40.2318 38.9884 40.4217 36.2725C40.6113 33.5559 35.2373 28.0736 35.2373 28.0736C35.2373 28.0736 33.6784 25.8934 31.5808 25.6576C29.4831 25.4219 28.5031 27.5912 28.5031 27.5912C28.5031 27.5912 27.0102 33.5472 28.2036 36.1885C29.397 38.8298 30.638 39.655 30.638 39.655C30.638 39.655 33.165 42.033 36.9434 40.1181Z" fill="#51979B"/>
<path d="M41.6155 26.4697C41.6155 26.4697 44.9039 25.3399 45.0938 22.624C45.2837 19.9082 39.9094 14.4251 39.9094 14.4251C39.9094 14.4251 38.3505 12.2449 36.2529 12.0092C34.1552 11.7735 33.176 13.9425 33.176 13.9425C33.176 13.9425 31.6831 19.8985 32.8765 22.5398C34.0699 25.1811 35.3109 26.0063 35.3109 26.0063C35.3109 26.0063 37.8379 28.3843 41.6155 26.4697Z" fill="#51979B"/>
<path d="M65.3939 27.4873C65.3939 27.4873 62.354 29.1648 60.1821 27.4961C58.0103 25.8273 57.4601 18.2054 57.4601 18.2054C57.4601 18.2054 56.8565 15.602 58.0757 13.8952C59.2948 12.1884 61.5808 12.9088 61.5808 12.9088C61.5808 12.9088 67.0601 15.7723 68.254 18.4124C69.4479 21.0526 69.2434 22.5195 69.2434 22.5195C69.2434 22.5195 69.3512 25.971 65.3939 27.4873Z" fill="#51979B"/>
<path d="M52.2967 21.7266C52.2967 21.7266 49.2568 23.4041 47.0849 21.7354C44.9131 20.0667 44.363 12.4448 44.363 12.4448C44.363 12.4448 43.7594 9.8414 44.9785 8.13461C46.1976 6.42782 48.4837 7.1482 48.4837 7.1482C48.4837 7.1482 53.9629 10.0116 55.1568 12.6518C56.3507 15.2919 56.1462 16.7589 56.1462 16.7589C56.1462 16.7589 56.2551 20.2109 52.2967 21.7266Z" fill="#51979B"/>
</svg>
