<svg width="20" height="21" viewBox="0 0 20 21" fill="none" xmlns="http://www.w3.org/2000/svg">
<path d="M11.5834 17.2001C9.73448 17.1997 7.93883 16.5849 6.48237 15.4536L1.90321 20.0019L0.430287 18.5389L5.00945 13.9906C3.86987 12.5438 3.25052 10.7598 3.25008 8.92279C3.25008 4.3589 6.98862 0.645508 11.5834 0.645508C16.1782 0.645508 19.9167 4.3589 19.9167 8.92279C19.9167 13.4867 16.1782 17.2001 11.5834 17.2001ZM11.5834 2.71483C8.13654 2.71483 5.33341 5.4991 5.33341 8.92279C5.33341 12.3465 8.13654 15.1307 11.5834 15.1307C15.0303 15.1307 17.8334 12.3465 17.8334 8.92279C17.8334 5.4991 15.0303 2.71483 11.5834 2.71483Z" fill="white"/>
</svg>
