<svg width="58" height="58" viewBox="0 0 58 58" fill="none" xmlns="http://www.w3.org/2000/svg">
<path d="M13.2834 57.0667C13.8439 57.0651 14.4027 57.0036 14.9501 56.8833C25.3724 54.7273 34.9741 49.6723 42.6501 42.3C50.1623 34.9115 55.3725 25.5043 57.6501 15.2167C57.9187 13.9345 57.8528 12.6048 57.4587 11.3555C57.0647 10.1062 56.3557 8.97935 55.4001 8.08333L48.7334 1.66666C48.3929 1.34464 47.9883 1.09804 47.5461 0.942965C47.1038 0.787886 46.6338 0.727811 46.1668 0.766661C45.6825 0.817182 45.2152 0.973183 44.7977 1.22369C44.3802 1.4742 44.0226 1.81314 43.7501 2.21666L35.4168 14.5333C35.1043 15.0112 34.9534 15.5768 34.9864 16.1469C35.0194 16.7169 35.2345 17.2613 35.6001 17.7L39.7834 22.7C38.1174 26.3874 35.7579 29.7201 32.8334 32.5167C29.928 35.4147 26.4937 37.7287 22.7168 39.3333L17.5334 35.2167C17.0981 34.8726 16.5684 34.6692 16.0146 34.6335C15.4609 34.5977 14.9094 34.7314 14.4334 35.0167L1.85011 43.15C1.41829 43.4078 1.05041 43.76 0.774035 44.1802C0.497656 44.6004 0.319941 45.0777 0.254206 45.5763C0.188471 46.0749 0.236421 46.582 0.39446 47.0594C0.552499 47.5369 0.816531 47.9724 1.16678 48.3333L7.66678 54.7667C8.40513 55.5014 9.28148 56.0828 10.2454 56.4776C11.2094 56.8723 12.2418 57.0725 13.2834 57.0667V57.0667ZM46.4334 4.06666L53.1001 10.4833C53.6377 10.9842 54.0356 11.6165 54.2548 12.3178C54.474 13.0191 54.5068 13.7654 54.3501 14.4833C52.2322 24.1369 47.3639 32.9705 40.3334 39.9167C33.1098 46.8526 24.0741 51.6073 14.2668 53.6333C13.5244 53.7885 12.7552 53.7571 12.028 53.5418C11.3008 53.3266 10.6384 52.9342 10.1001 52.4L3.60011 45.9667L15.7501 38.1167L21.3168 42.55C21.5299 42.7187 21.781 42.8327 22.0483 42.882C22.3155 42.9314 22.5908 42.9147 22.8501 42.8333C27.4723 41.1303 31.661 38.427 35.1168 34.9167C38.6912 31.5787 41.4657 27.4767 43.2334 22.9167C43.3082 22.6406 43.3107 22.3499 43.2407 22.0726C43.1706 21.7953 43.0304 21.5407 42.8334 21.3333L38.3334 15.95L46.4334 4.06666Z" fill="white"/>
</svg>
