<svg width="54" height="60" viewBox="0 0 54 60" fill="none" xmlns="http://www.w3.org/2000/svg">
<path d="M36.9825 5.9625C40.554 6.94681 44.1013 8.01712 47.6212 9.1725C47.9426 9.27662 48.2284 9.46891 48.4458 9.72748C48.6633 9.98605 48.8038 10.3005 48.8512 10.635C50.9287 26.2238 46.1287 37.5975 40.4025 45.09C37.978 48.294 35.0872 51.1166 31.8262 53.4637C30.5287 54.3787 29.3812 55.0387 28.4775 55.4625C28.0275 55.6762 27.66 55.8187 27.3787 55.905C27.2557 55.9481 27.1289 55.9795 27 55.9987C26.8726 55.978 26.7471 55.9467 26.625 55.905C26.34 55.8187 25.9725 55.6762 25.5225 55.4625C24.6225 55.0387 23.4712 54.375 22.1737 53.4637C18.9128 51.1165 16.0219 48.2939 13.5975 45.09C7.87122 37.6013 3.07123 26.2238 5.14873 10.635C5.19578 10.3003 5.3361 9.98569 5.55362 9.72705C5.77114 9.46841 6.05709 9.27623 6.37873 9.1725C8.81998 8.37375 12.9412 7.0725 17.0175 5.96625C21.18 4.8375 25.0087 4.00125 27 4.00125C28.9875 4.00125 32.82 4.8375 36.9825 5.96625V5.9625ZM37.98 2.1C33.9112 0.99375 29.5875 0 27 0C24.4125 0 20.0887 0.99375 16.02 2.1C11.8575 3.225 7.66123 4.55625 5.19373 5.3625C4.16207 5.70319 3.24744 6.32799 2.55491 7.16513C1.86239 8.00226 1.42005 9.01777 1.27872 10.095C-0.956276 26.8838 4.22998 39.3263 10.5225 47.5575C13.1908 51.0787 16.3725 54.1795 19.9612 56.7563C21.2021 57.6479 22.5169 58.432 23.8912 59.1C24.9412 59.595 26.07 60 27 60C27.93 60 29.055 59.595 30.1087 59.1C31.4831 58.432 32.7978 57.6479 34.0387 56.7563C37.6274 54.1794 40.809 51.0786 43.4775 47.5575C49.77 39.3263 54.9562 26.8838 52.7212 10.095C52.5799 9.01777 52.1376 8.00226 51.445 7.16513C50.7525 6.32799 49.8379 5.70319 48.8062 5.3625C45.2243 4.18803 41.6145 3.10022 37.98 2.1V2.1Z" fill="white"/>
<path d="M21.375 24.375C21.3744 25.5387 21.7347 26.674 22.4064 27.6244C23.078 28.5747 24.0278 29.2934 25.125 29.6813L23.6812 37.1438C23.6287 37.4152 23.6369 37.6949 23.7051 37.9628C23.7733 38.2307 23.9 38.4802 24.0759 38.6934C24.2519 38.9066 24.4728 39.0783 24.7229 39.1962C24.973 39.314 25.246 39.3751 25.5225 39.375H28.4775C28.7536 39.3745 29.0263 39.313 29.2759 39.195C29.5255 39.0769 29.746 38.9051 29.9215 38.692C30.0971 38.4788 30.2234 38.2295 30.2914 37.9619C30.3594 37.6942 30.3675 37.4149 30.315 37.1438L28.875 29.6813C29.8471 29.3376 30.7061 28.7332 31.358 27.9344C32.01 27.1355 32.4298 26.1728 32.5716 25.1515C32.7134 24.1302 32.5717 23.0895 32.162 22.1433C31.7524 21.197 31.0905 20.3816 30.2488 19.786C29.407 19.1905 28.4178 18.8378 27.3892 18.7664C26.3605 18.6951 25.332 18.9079 24.4161 19.3815C23.5002 19.8552 22.7322 20.5715 22.1958 21.4521C21.6595 22.3328 21.3755 23.3439 21.375 24.375V24.375Z" fill="white"/>
</svg>
