<svg width="25" height="26" viewBox="0 0 25 26" fill="none" xmlns="http://www.w3.org/2000/svg">
<path d="M17.1875 23.8559C16.3246 23.8559 15.625 23.1611 15.625 22.3039C15.625 21.4468 16.3246 20.752 17.1875 20.752C18.0504 20.752 18.75 21.4468 18.75 22.3039C18.75 23.1611 18.0504 23.8559 17.1875 23.8559Z" fill="white"/>
<path d="M6.25 23.8559C5.38705 23.8559 4.6875 23.1611 4.6875 22.3039C4.6875 21.4468 5.38705 20.752 6.25 20.752C7.11294 20.752 7.8125 21.4468 7.8125 22.3039C7.8125 23.1611 7.11294 23.8559 6.25 23.8559Z" fill="white"/>
<path d="M3.125 6.00806H20.4531L21.0938 2.74888C21.1303 2.57097 21.2285 2.41141 21.3712 2.29797C21.514 2.18454 21.6922 2.12443 21.875 2.12809H25V3.68008H22.5156L19.5312 18.5792C19.4947 18.7571 19.3965 18.9167 19.2538 19.0301C19.111 19.1435 18.9328 19.2036 18.75 19.2H4.6875V17.648H18.1094L18.75 14.544H4.6875C4.5069 14.5484 4.33036 14.4905 4.18792 14.3801C4.04548 14.2698 3.94594 14.1138 3.90625 13.9387L2.34375 6.95478C2.31757 6.83964 2.31818 6.72008 2.34553 6.60522C2.37288 6.49035 2.42626 6.38319 2.50159 6.2919C2.57693 6.20061 2.67224 6.12759 2.78027 6.07841C2.8883 6.02922 3.0062 6.00516 3.125 6.00806ZM5.3125 12.992H19.0469L20.1406 7.56005H4.10156L5.3125 12.992Z" fill="white"/>
</svg>
