<svg width="25" height="26" viewBox="0 0 25 26" fill="none" xmlns="http://www.w3.org/2000/svg">
<path d="M20.9595 19.0934C20.499 18.0098 19.8307 17.0256 18.9918 16.1955C18.1554 15.3631 17.1647 14.6993 16.0743 14.241C16.0645 14.2362 16.0547 14.2337 16.045 14.2289C17.566 13.1376 18.5547 11.3601 18.5547 9.35466C18.5547 6.03243 15.8448 3.3407 12.5001 3.3407C9.15533 3.3407 6.44537 6.03243 6.44537 9.35466C6.44537 11.3601 7.43414 13.1376 8.95514 14.2313C8.94537 14.2362 8.93561 14.2386 8.92584 14.2434C7.83209 14.7017 6.85065 15.3589 6.00836 16.198C5.17025 17.0287 4.50203 18.0128 4.04059 19.0958C3.58727 20.1562 3.34279 21.293 3.32037 22.4447C3.31972 22.4706 3.32429 22.4964 3.33382 22.5205C3.34334 22.5446 3.35762 22.5665 3.37582 22.585C3.39403 22.6036 3.41578 22.6183 3.4398 22.6284C3.46382 22.6384 3.48962 22.6436 3.51569 22.6436H4.98053C5.08795 22.6436 5.1734 22.5587 5.17584 22.4544C5.22467 20.5823 5.98151 18.8291 7.3194 17.5002C8.70367 16.1252 10.5421 15.3686 12.5001 15.3686C14.4581 15.3686 16.2964 16.1252 17.6807 17.5002C19.0186 18.8291 19.7755 20.5823 19.8243 22.4544C19.8267 22.5611 19.9122 22.6436 20.0196 22.6436H21.4844C21.5105 22.6436 21.5363 22.6384 21.5603 22.6284C21.5843 22.6183 21.6061 22.6036 21.6243 22.585C21.6425 22.5665 21.6568 22.5446 21.6663 22.5205C21.6758 22.4964 21.6804 22.4706 21.6797 22.4447C21.6553 21.2856 21.4136 20.158 20.9595 19.0934V19.0934ZM12.5001 13.5256C11.3795 13.5256 10.3248 13.0916 9.53131 12.3034C8.73785 11.5153 8.30084 10.4677 8.30084 9.35466C8.30084 8.24159 8.73785 7.194 9.53131 6.40588C10.3248 5.61776 11.3795 5.18369 12.5001 5.18369C13.6207 5.18369 14.6754 5.61776 15.4688 6.40588C16.2623 7.194 16.6993 8.24159 16.6993 9.35466C16.6993 10.4677 16.2623 11.5153 15.4688 12.3034C14.6754 13.0916 13.6207 13.5256 12.5001 13.5256Z" fill="white"/>
</svg>
